<svg width="17" height="24" viewBox="0 0 17 24" fill="none" xmlns="http://www.w3.org/2000/svg">
<path fill-rule="evenodd" clip-rule="evenodd" d="M0 8.4375C0 3.78506 3.7743 0 8.4135 0C13.0527 0 16.827 3.78506 16.827 8.4375C16.827 9.96278 16.4166 11.4576 15.6403 12.7603L9.13183 23.6581C9.00623 23.8686 8.78038 23.9981 8.53588 24H8.53031C8.28791 24 8.06252 23.8743 7.93459 23.6676L1.2559 12.8743C0.434183 11.5434 0 10.0094 0 8.4375ZM8.5197 21.9462L14.4369 12.0383C15.083 10.9541 15.4295 9.70877 15.4295 8.4375C15.4295 4.56047 12.2796 1.39688 8.4135 1.39688C4.5475 1.39688 1.3929 4.56047 1.3929 8.4375C1.3929 9.74765 1.76375 11.0257 2.44773 12.1334L8.5197 21.9462Z" fill="#BEAF99"/>
<path fill-rule="evenodd" clip-rule="evenodd" d="M3.95898 8.15984C3.95898 5.7778 5.95714 3.83984 8.41319 3.83984C10.8692 3.83984 12.8674 5.7778 12.8674 8.15984C12.8674 10.5006 10.9324 12.4798 8.41319 12.4798C5.92463 12.4798 3.95898 10.5267 3.95898 8.15984ZM5.43382 8.15984C5.43382 9.75181 6.76726 11.0494 8.41319 11.0494C10.0852 11.0494 11.3876 9.72868 11.3876 8.15984C11.3876 6.57181 10.0506 5.27024 8.41319 5.27024C6.77583 5.27024 5.43382 6.57181 5.43382 8.15984Z" fill="#BEAF99"/>
</svg>
