<svg width="22" height="17" viewBox="0 0 22 17" fill="none" xmlns="http://www.w3.org/2000/svg">
<path d="M5.83524 9.33946V7.47157C5.83524 6.67772 5.5921 5.94986 5.10583 5.288C4.61956 4.62677 3.89016 4.22611 2.91762 4.08602V2.80184C2.91762 2.02355 3.20127 1.36201 3.76859 0.817203C4.3359 0.272401 5.02479 0 5.83524 0H15.5606C16.3711 0 17.06 0.272401 17.6273 0.817203C18.1946 1.36201 18.4782 2.02355 18.4782 2.80184V4.08602C17.5057 4.3195 16.7763 4.74382 16.29 5.35898C15.8038 5.97352 15.5606 6.67772 15.5606 7.47157V9.33946H5.83524ZM3.89016 16.811C3.6146 16.811 3.38346 16.7214 3.19674 16.5421C3.01066 16.3634 2.91762 16.1417 2.91762 15.8771V14.9431C2.10717 14.9431 1.41829 14.6707 0.850972 14.1259C0.283657 13.5811 0 12.9196 0 12.1413V7.47157C0 6.92677 0.182189 6.4791 0.546567 6.12856C0.911593 5.77864 1.37776 5.60368 1.94508 5.60368C2.51239 5.60368 2.97856 5.77864 3.34359 6.12856C3.70797 6.4791 3.89016 6.92677 3.89016 7.47157V11.2074H17.5057V7.47157C17.5057 6.92677 17.6879 6.4791 18.0523 6.12856C18.4173 5.77864 18.8835 5.60368 19.4508 5.60368C20.0181 5.60368 20.4843 5.77864 20.8493 6.12856C21.2137 6.4791 21.3959 6.92677 21.3959 7.47157V12.1413C21.3959 12.9196 21.1122 13.5811 20.5449 14.1259C19.9776 14.6707 19.2887 14.9431 18.4782 14.9431V15.8771C18.4782 16.1417 18.3849 16.3634 18.1982 16.5421C18.0121 16.7214 17.7813 16.811 17.5057 16.811C17.2302 16.811 16.9993 16.7214 16.8133 16.5421C16.6265 16.3634 16.5332 16.1417 16.5332 15.8771V14.9431H4.8627V15.8771C4.8627 16.1417 4.76966 16.3634 4.58358 16.5421C4.39685 16.7214 4.16571 16.811 3.89016 16.811Z" fill="#BEAF99"/>
</svg>
