<svg width="16" height="16" viewBox="0 0 16 16" fill="none" xmlns="http://www.w3.org/2000/svg">
<path d="M3.37177 12.6441H6.25885V9.84136H8.42943V7.03858H10.6V4.21472H11.8012C12.04 4.21472 12.2401 4.13407 12.4014 3.97279C12.5632 3.81095 12.6441 3.61061 12.6441 3.37177C12.6441 3.13294 12.5632 2.9326 12.4014 2.77075C12.2401 2.60947 12.04 2.52883 11.8012 2.52883H8.91412V5.33162H6.74355V8.1344H4.57297V10.9583H3.37177C3.13294 10.9583 2.9326 11.0392 2.77075 11.201C2.60947 11.3623 2.52883 11.5624 2.52883 11.8012C2.52883 12.04 2.60947 12.2401 2.77075 12.4014C2.9326 12.5632 3.13294 12.6441 3.37177 12.6441ZM1.68589 15.173C1.22227 15.173 0.825241 15.008 0.494808 14.6782C0.164936 14.3477 0 13.9507 0 13.4871V1.68589C0 1.22227 0.164936 0.825241 0.494808 0.494808C0.825241 0.164936 1.22227 0 1.68589 0H13.4871C13.9507 0 14.3477 0.164936 14.6782 0.494808C15.008 0.825241 15.173 1.22227 15.173 1.68589V13.4871C15.173 13.9507 15.008 14.3477 14.6782 14.6782C14.3477 15.008 13.9507 15.173 13.4871 15.173H1.68589Z" fill="#BEAF99"/>
</svg>
