<svg width="23" height="23" viewBox="0 0 23 23" fill="none" xmlns="http://www.w3.org/2000/svg">
<path d="M2.84497 8.53466V6.63803H4.74159V8.53466H2.84497ZM6.63822 12.3279V10.4313H8.53484V12.3279H6.63822ZM6.63822 4.74141V2.84479H8.53484V4.74141H6.63822ZM10.4315 8.53466V6.63803H12.3281V8.53466H10.4315ZM4.74159 19.9144C4.22002 19.9144 3.77353 19.7287 3.4021 19.3573C3.03068 18.9858 2.84497 18.5393 2.84497 18.0178V11.3796C2.84497 11.1109 2.93585 10.8857 3.11761 10.7039C3.29937 10.5222 3.52459 10.4313 3.79328 10.4313C4.06197 10.4313 4.28719 10.5222 4.46895 10.7039C4.65071 10.8857 4.74159 11.1109 4.74159 11.3796V18.0178H18.018V4.74141H11.3798C11.1111 4.74141 10.8859 4.65053 10.7041 4.46877C10.5223 4.28701 10.4315 4.06179 10.4315 3.7931C10.4315 3.52441 10.5223 3.29919 10.7041 3.11743C10.8859 2.93567 11.1111 2.84479 11.3798 2.84479H18.018C18.5395 2.84479 18.986 3.0305 19.3574 3.40192C19.7289 3.77334 19.9146 4.21984 19.9146 4.74141V18.0178C19.9146 18.5393 19.7289 18.9858 19.3574 19.3573C18.986 19.7287 18.5395 19.9144 18.018 19.9144H4.74159ZM2.84497 4.74141C2.84497 4.21984 3.03068 3.77334 3.4021 3.40192C3.77353 3.0305 4.22002 2.84479 4.74159 2.84479V4.74141H2.84497ZM10.4315 12.3279V10.4313H12.3281C12.3281 10.9528 12.1424 11.3993 11.771 11.7708C11.3995 12.1422 10.953 12.3279 10.4315 12.3279Z" fill="#BEAF99"/>
</svg>
