<svg width="23" height="23" viewBox="0 0 23 23" fill="none" xmlns="http://www.w3.org/2000/svg">
<path d="M14.2247 16.2398L15.9079 17.2592C16.0027 17.3225 16.0936 17.3225 16.1805 17.2592C16.2675 17.196 16.2951 17.1091 16.2635 16.9985L15.8131 15.0781L17.283 13.8216C17.362 13.7426 17.3857 13.6557 17.3541 13.5608C17.3225 13.466 17.2513 13.4107 17.1407 13.3949L15.2204 13.2289L14.438 11.4034C14.4064 11.3086 14.3353 11.2612 14.2247 11.2612C14.114 11.2612 14.0429 11.3086 14.0113 11.4034L13.2289 13.2289L11.3086 13.3949C11.198 13.4107 11.1268 13.466 11.0952 13.5608C11.0636 13.6557 11.0873 13.7426 11.1663 13.8216L12.6362 15.0781L12.1858 16.9985C12.1542 17.1091 12.1818 17.196 12.2688 17.2592C12.3557 17.3225 12.4466 17.3225 12.5414 17.2592L14.2247 16.2398ZM3.79323 15.173C3.27166 15.173 2.82516 14.9873 2.45374 14.6158C2.08232 14.2444 1.89661 13.7979 1.89661 13.2763V3.79323C1.89661 3.27166 2.08232 2.82516 2.45374 2.45374C2.82516 2.08232 3.27166 1.89661 3.79323 1.89661H13.2763C13.7979 1.89661 14.2444 2.08232 14.6158 2.45374C14.9873 2.82516 15.173 3.27166 15.173 3.79323V4.74154C15.173 5.01023 15.0821 5.23545 14.9003 5.41721C14.7186 5.59897 14.4933 5.68985 14.2247 5.68985C13.956 5.68985 13.7307 5.59897 13.549 5.41721C13.3672 5.23545 13.2763 5.01023 13.2763 4.74154V3.79323H3.79323V13.2763H4.74154C5.01023 13.2763 5.23545 13.3672 5.41721 13.549C5.59897 13.7307 5.68985 13.956 5.68985 14.2247C5.68985 14.4933 5.59897 14.7186 5.41721 14.9003C5.23545 15.0821 5.01023 15.173 4.74154 15.173H3.79323ZM9.4831 20.8628C8.96152 20.8628 8.51503 20.6771 8.14361 20.3057C7.77218 19.9343 7.58647 19.4878 7.58647 18.9662V9.4831C7.58647 8.96152 7.77218 8.51503 8.14361 8.14361C8.51503 7.77218 8.96152 7.58647 9.4831 7.58647H18.9662C19.4878 7.58647 19.9343 7.77218 20.3057 8.14361C20.6771 8.51503 20.8628 8.96152 20.8628 9.4831V18.9662C20.8628 19.4878 20.6771 19.9343 20.3057 20.3057C19.9343 20.6771 19.4878 20.8628 18.9662 20.8628H9.4831Z" fill="#BEAF99"/>
</svg>
