<svg width="11" height="9" viewBox="0 0 11 9" fill="none" xmlns="http://www.w3.org/2000/svg">
<path d="M1.05556 1.07143L5.62698 4.5L9.94441 1.07143M10.5 2.32854V6.6714C10.5 7.31146 10.5001 7.63155 10.379 7.87602C10.2725 8.09106 10.1023 8.26585 9.89322 8.37542C9.65554 8.49998 9.34461 8.5 8.72233 8.5H2.27789C1.65561 8.5 1.34423 8.49998 1.10655 8.37542C0.897485 8.26585 0.72763 8.09106 0.621104 7.87602C0.5 7.63155 0.5 7.31146 0.5 6.6714V2.32854C0.5 1.68848 0.5 1.36849 0.621104 1.12402C0.72763 0.908981 0.897485 0.734134 1.10655 0.624564C1.34423 0.5 1.65561 0.5 2.27789 0.5H8.72233C9.34461 0.5 9.65554 0.5 9.89322 0.624564C10.1023 0.734134 10.2725 0.908981 10.379 1.12402C10.5001 1.36849 10.5 1.68848 10.5 2.32854Z" stroke="white" stroke-linecap="round" stroke-linejoin="round"/>
</svg>
