<svg width="10" height="10" viewBox="0 0 10 10" fill="none" xmlns="http://www.w3.org/2000/svg">
<path d="M3.76317 2.94407C4.36748 2.3049 3.70824 1.46122 3.32368 0.873188C3.10393 0.540824 2.77431 0.0550623 2.30735 0.00392949C1.86785 -0.0472033 1.45583 0.412993 1.15367 0.668657C0.439495 1.25668 0.0549368 2.04924 0 2.9185C0 3.02077 0 3.17416 0 3.04633C0.0824053 3.58323 0.137342 4.09455 0.329621 4.58032C0.5219 5.06608 0.769116 5.50071 1.07127 5.90977C1.70304 6.80459 2.44469 7.64828 3.29621 8.36414C4.14773 9.05444 5.08166 9.6936 6.20786 9.9237C7.25166 10.1282 8.29546 9.9237 9.11952 9.28454C9.42167 9.05444 9.97104 8.72207 9.99851 8.31301C10.026 7.90395 9.66889 7.59715 9.3942 7.34149C8.76243 6.83016 7.8285 5.93534 6.97698 6.5745C6.64736 6.83016 6.29027 7.29036 5.85077 7.36705C5.41128 7.44375 4.97179 7.13696 4.66963 6.90686C3.95545 6.36996 3.26874 5.62854 2.82925 4.86155C2.66444 4.52918 2.49963 4.06899 2.74684 3.73662C3.049 3.42983 3.48849 3.27643 3.76317 2.94407Z" fill="white"/>
</svg>
