<svg width="22" height="22" viewBox="0 0 22 22" fill="none" xmlns="http://www.w3.org/2000/svg">
<circle cx="11" cy="11" r="11" fill="#BEAF99"/>
<path d="M10.0141 8.75772C10.6586 8.03011 9.95545 7.06967 9.54526 6.40027C9.31086 6.02191 8.95926 5.46893 8.46117 5.41072C7.99238 5.35251 7.55288 5.87639 7.23059 6.16744C6.46879 6.83684 6.0586 7.73907 6 8.72862C6 8.84503 6 9.01966 6 8.87414C6.0879 9.48533 6.1465 10.0674 6.3516 10.6204C6.55669 11.1734 6.82039 11.6682 7.14269 12.1338C7.81658 13.1525 8.60767 14.1129 9.51596 14.9278C10.4242 15.7137 11.4204 16.4413 12.6217 16.7032C13.7351 16.936 14.8485 16.7032 15.7275 15.9756C16.0498 15.7137 16.6358 15.3353 16.6651 14.8696C16.6944 14.404 16.3135 14.0547 16.0205 13.7637C15.3466 13.1816 14.3504 12.1629 13.4421 12.8905C13.0905 13.1816 12.7096 13.7055 12.2408 13.7928C11.772 13.8801 11.3032 13.5308 10.9809 13.2689C10.2192 12.6577 9.48666 11.8137 9.01786 10.9405C8.84207 10.5622 8.66627 10.0383 8.92997 9.65996C9.25226 9.3107 9.72106 9.13608 10.0141 8.75772Z" fill="white"/>
</svg>
