<svg width="24" height="24" viewBox="0 0 24 24" fill="none" xmlns="http://www.w3.org/2000/svg">
<path d="M8.70696 2.31376C8.3368 1.38834 7.44051 0.781525 6.4438 0.781525H3.0907C1.81536 0.781525 0.781494 1.81544 0.781494 3.09078C0.781494 13.9312 9.56963 22.719 20.41 22.719C21.6854 22.719 22.719 21.6852 22.719 20.4099L22.7189 17.0567C22.7189 16.06 22.1119 15.1638 21.1865 14.7937L17.9746 13.5088C17.1433 13.1763 16.1969 13.3261 15.5091 13.8993L14.679 14.5908C13.7105 15.3979 12.2865 15.3334 11.395 14.4419L9.05847 12.1055C8.16703 11.2141 8.1028 9.78996 8.90987 8.82148L9.60136 7.99162C10.1745 7.30382 10.3243 6.35722 9.99182 5.52595L8.70696 2.31376Z" stroke="white" stroke-width="1.56308" stroke-linecap="round" stroke-linejoin="round"/>
</svg>
