<svg width="24" height="23" viewBox="0 0 24 23" fill="none" xmlns="http://www.w3.org/2000/svg">
<path d="M17.4419 16.4392C14.3451 19.3247 10.1885 18.0452 5.45481 17.5944C4.77857 13.9877 3.89579 8.11018 6.9926 5.22468C10.0894 2.33917 14.939 2.51046 17.8245 5.60726C20.71 8.70406 20.5388 13.5537 17.4419 16.4392Z" fill="white"/>
<path d="M20.7825 10.7694C20.7651 12.4126 20.3271 13.9323 19.4436 15.3223C19.053 15.9368 18.5904 16.4929 18.0551 16.9867C16.8772 18.0732 15.502 18.7835 13.9279 19.1058C13.5592 19.1815 13.1864 19.2277 12.811 19.2539C12.4908 19.2762 12.1706 19.2795 11.851 19.2656C11.2089 19.2372 10.5775 19.1381 9.95783 18.9667C9.37782 18.8063 8.82128 18.5881 8.28765 18.3115C8.13287 18.2313 8.15634 18.2363 7.9915 18.2798C6.62641 18.6355 5.26187 18.9923 3.89678 19.3491C3.83196 19.3658 3.76714 19.3825 3.70177 19.3964C3.66545 19.4042 3.64533 19.3825 3.65204 19.3441C3.65706 19.3151 3.66489 19.2862 3.67271 19.2578C4.04318 17.909 4.41477 16.5608 4.78412 15.2115C4.84502 14.9899 4.85005 15.045 4.74109 14.8469C4.29575 14.0358 3.99289 13.1753 3.82917 12.2657C3.76826 11.9261 3.72524 11.5838 3.71238 11.2387C3.70568 11.0533 3.69506 10.8679 3.69674 10.6831C3.70121 10.1103 3.76435 9.54365 3.88505 8.9831C4.04765 8.22772 4.30972 7.50797 4.66957 6.82385C4.97187 6.24994 5.33675 5.71778 5.7603 5.22625C6.26544 4.6401 6.84042 4.13243 7.48357 3.70103C8.05464 3.31805 8.66315 3.00855 9.31021 2.77309C9.86508 2.57102 10.4345 2.42852 11.019 2.34502C11.3397 2.29937 11.6621 2.26486 11.9868 2.26653C12.2438 2.26764 12.5008 2.26208 12.7573 2.27544C13.1255 2.29436 13.491 2.34224 13.8536 2.4107C14.6979 2.57102 15.4992 2.85213 16.2564 3.2557C16.9068 3.60194 17.5008 4.02722 18.0417 4.5271C18.6602 5.09934 19.1844 5.74617 19.6118 6.47037C20.1516 7.38607 20.5025 8.36967 20.6701 9.41785C20.7221 9.74405 20.7579 10.0719 20.7657 10.4026C20.7679 10.525 20.7769 10.6469 20.7825 10.7694ZM5.69325 17.3813C5.74857 17.4008 5.79439 17.3802 5.84021 17.368C6.48504 17.1998 7.12931 17.0312 7.77413 16.8625C7.93283 16.8213 8.09152 16.7818 8.24909 16.7373C8.32229 16.7161 8.38655 16.7211 8.45025 16.764C8.49943 16.7974 8.55251 16.8252 8.60336 16.8558C9.12805 17.1664 9.68348 17.4047 10.2696 17.5739C10.8234 17.7337 11.3889 17.8205 11.9638 17.8461C12.3662 17.8639 12.7674 17.8406 13.1669 17.7882C13.8849 17.6947 14.5722 17.4949 15.2282 17.1898C16.1563 16.7584 16.9537 16.1545 17.622 15.3818C18.2043 14.7083 18.6451 13.9529 18.9419 13.114C19.1564 12.5084 19.2877 11.8855 19.3268 11.2453C19.3576 10.7449 19.3436 10.245 19.2704 9.74683C19.1419 8.87455 18.8631 8.05349 18.4267 7.28698C18.002 6.54051 17.4583 5.89145 16.7978 5.33981C15.9736 4.65234 15.0416 4.17307 14 3.90754C13.3943 3.75335 12.7785 3.68266 12.1533 3.68934C11.8247 3.69323 11.4984 3.71828 11.1743 3.76782C10.3305 3.89641 9.53428 4.16583 8.78776 4.57942C8.24854 4.87835 7.75737 5.24351 7.31091 5.66768C7.02481 5.93988 6.76498 6.23546 6.5303 6.55276C5.60329 7.80578 5.14062 9.213 5.12553 10.7677C5.12274 11.0605 5.14621 11.3528 5.18253 11.6439C5.27696 12.4015 5.48874 13.124 5.81841 13.8132C5.96146 14.1115 6.12295 14.3993 6.30679 14.6749C6.36322 14.7595 6.3744 14.8391 6.34534 14.9359C6.28108 15.1491 6.22576 15.3646 6.16709 15.5794C6.01454 16.1339 5.86144 16.6883 5.70945 17.2427C5.69772 17.285 5.67872 17.3273 5.69325 17.3813Z" fill="#BEAF99"/>
<path d="M14.4629 14.8404C14.1578 14.8543 13.8627 14.8014 13.5733 14.7079C13.219 14.5927 12.8687 14.4685 12.5245 14.326C12.0366 14.1245 11.5835 13.864 11.156 13.5567C10.8537 13.3391 10.5693 13.1008 10.2966 12.847C9.74509 12.3332 9.2584 11.7638 8.82535 11.1487C8.71638 10.9939 8.60575 10.8397 8.50405 10.68C8.33474 10.4128 8.19449 10.13 8.08497 9.83329C7.96483 9.50653 7.88995 9.17087 7.89778 8.82185C7.91119 8.20842 8.11291 7.66735 8.53925 7.21702C8.57781 7.17638 8.61357 7.13352 8.65213 7.094C8.81529 6.92533 9.01421 6.83516 9.25002 6.83683C9.40983 6.83794 9.56964 6.84685 9.73001 6.85297C9.83059 6.85631 9.91049 6.90251 9.96637 6.98156C10.0133 7.0478 10.0547 7.11961 10.0876 7.19364C10.1586 7.35284 10.2228 7.51539 10.2899 7.67626C10.4486 8.05645 10.6062 8.43665 10.7671 8.81628C10.8196 8.94042 10.8219 9.05787 10.7604 9.18033C10.6917 9.31727 10.6179 9.44864 10.5151 9.56331C10.4061 9.68522 10.3 9.80935 10.1927 9.93237C10.1759 9.95186 10.1586 9.9719 10.1435 9.99305C10.0882 10.0715 10.0753 10.1567 10.1117 10.2463C10.1284 10.2875 10.1485 10.3276 10.1714 10.3654C10.4721 10.8642 10.8241 11.3229 11.251 11.7203C11.7036 12.1417 12.2115 12.4813 12.7787 12.7312C12.8776 12.7746 12.9754 12.8197 13.0748 12.862C13.119 12.881 13.1648 12.8971 13.2118 12.9094C13.309 12.9338 13.3967 12.911 13.4705 12.8431C13.5006 12.8158 13.5291 12.7863 13.556 12.7552C13.7722 12.5052 13.9879 12.2547 14.1812 11.9859C14.2069 11.9497 14.236 11.9152 14.2673 11.884C14.3321 11.8183 14.412 11.7916 14.502 11.8133C14.5774 11.8317 14.6534 11.8528 14.7249 11.8834C14.8758 11.9475 15.0244 12.0154 15.1719 12.0861C15.5474 12.267 15.9218 12.4501 16.2962 12.6327C16.3398 12.6538 16.3817 12.6778 16.4242 12.7006C16.5141 12.749 16.5594 12.8236 16.5605 12.9261C16.5622 13.0413 16.5622 13.156 16.5443 13.2701C16.518 13.4393 16.4789 13.6052 16.423 13.7666C16.3789 13.8946 16.3102 14.0082 16.2174 14.1073C16.1258 14.2052 16.028 14.296 15.919 14.3745C15.7436 14.5014 15.5553 14.606 15.3569 14.6929C15.1496 14.7836 14.9322 14.8292 14.707 14.8404C14.6266 14.8437 14.5444 14.8404 14.4629 14.8404Z" fill="#BEAF99"/>
</svg>
