<svg width="19" height="18" viewBox="0 0 19 18" fill="none" xmlns="http://www.w3.org/2000/svg">
<path d="M13.6355 12.8515C11.2145 15.1073 7.96502 14.107 4.26439 13.7546C3.73573 10.9351 3.04561 6.34022 5.46656 4.08445C7.88752 1.82867 11.6788 1.96257 13.9345 4.38353C16.1903 6.80449 16.0564 10.5957 13.6355 12.8515Z" fill="#49C858"/>
<path d="M9.36829 2.11816H9.36926C9.58207 2.11908 9.76579 2.11416 9.9552 2.12402C10.2249 2.1379 10.495 2.17348 10.7657 2.22461C11.3916 2.34349 11.9844 2.5518 12.545 2.85059H12.546C12.9071 3.04283 13.2449 3.26817 13.5607 3.52539L13.8693 3.79297C14.3284 4.21781 14.7166 4.69776 15.0333 5.23438V5.2334C15.433 5.9114 15.6922 6.63966 15.8165 7.41699C15.8359 7.53891 15.8523 7.65988 15.8644 7.78027L15.8878 8.14062C15.8897 8.23689 15.8957 8.34334 15.8995 8.42383C15.8852 9.64233 15.5608 10.7638 14.9073 11.792C14.6179 12.2474 14.2759 12.6592 13.88 13.0244C13.1143 13.7308 12.2387 14.2223 11.2491 14.4941L10.8185 14.5967C10.5479 14.6522 10.2717 14.6865 9.99036 14.7061C9.87197 14.7143 9.75348 14.7193 9.63489 14.7207L9.27942 14.7148C8.80327 14.6938 8.33507 14.6201 7.8761 14.4932C7.55346 14.404 7.2407 14.2909 6.93762 14.1533L6.63782 14.0078C6.61524 13.9961 6.5813 13.9774 6.55383 13.9648C6.52159 13.9501 6.46792 13.9286 6.39954 13.9219C6.33199 13.9153 6.27635 13.9263 6.24426 13.9336L6.1593 13.9551C5.2155 14.201 4.27182 14.4467 3.32825 14.6934C3.57647 13.7903 3.82598 12.8872 4.07336 11.9834C4.08068 11.9568 4.09536 11.905 4.10168 11.8799C4.11001 11.8469 4.12615 11.7805 4.11633 11.7002C4.10644 11.6196 4.07508 11.5583 4.05969 11.5293C4.05019 11.5114 4.01911 11.458 4.00891 11.4395C3.72034 10.9138 3.51265 10.3603 3.38391 9.77832L3.33411 9.52734C3.28863 9.27379 3.2575 9.02301 3.24817 8.77344L3.23547 8.35449C3.23878 7.93068 3.28574 7.51097 3.37512 7.0957C3.49552 6.53638 3.68953 6.00314 3.95618 5.49609C4.17995 5.07126 4.45033 4.67645 4.76477 4.31152C5.13911 3.87714 5.56571 3.50088 6.04309 3.18066C6.4664 2.8968 6.91719 2.66762 7.39661 2.49316C7.80766 2.34348 8.2291 2.23671 8.66223 2.1748C8.90609 2.1401 9.13924 2.11701 9.36829 2.11816ZM9.49622 2.53809C9.22454 2.54132 8.95315 2.56218 8.68274 2.60352C7.98334 2.71015 7.32205 2.934 6.70227 3.27734H6.70129C6.36514 3.46373 6.05213 3.68098 5.76086 3.92578L5.47668 4.17969C5.23812 4.40667 5.02133 4.6533 4.82629 4.91699C4.05764 5.95611 3.67279 7.12716 3.66028 8.41406C3.6579 8.66324 3.67854 8.90832 3.70813 9.14551C3.78657 9.77459 3.96274 10.3751 4.23645 10.9473V10.9482C4.34766 11.1802 4.47308 11.4056 4.61536 11.623C4.56903 11.7807 4.52651 11.9412 4.48645 12.0879C4.36739 12.5206 4.24782 12.9544 4.12903 13.3877C4.12884 13.3883 4.12858 13.3899 4.12805 13.3916C4.12733 13.394 4.12564 13.4003 4.12415 13.4053C4.12055 13.4173 4.11441 13.4387 4.1095 13.4639C4.09876 13.519 4.09362 13.5933 4.11633 13.6777L4.16321 13.8535L4.33508 13.9141C4.42701 13.9464 4.50996 13.9432 4.57043 13.9326C4.59774 13.9278 4.62085 13.9217 4.63391 13.918C4.63956 13.9163 4.64696 13.9138 4.64954 13.9131C4.65117 13.9126 4.65261 13.9123 4.65344 13.9121V13.9111C5.15692 13.7799 5.66 13.6482 6.16321 13.5166L6.16418 13.5176C6.26443 13.4916 6.37192 13.462 6.47961 13.4326C6.51106 13.4513 6.53868 13.4686 6.547 13.4736L6.54895 13.4746C6.98481 13.7326 7.44603 13.931 7.93176 14.0713C8.39311 14.2044 8.86271 14.2757 9.33704 14.2969C9.67505 14.3118 10.0094 14.2921 10.338 14.249C10.8598 14.181 11.3625 14.0453 11.8448 13.8428L12.0499 13.752C12.8202 13.3939 13.483 12.8917 14.0372 12.251C14.5203 11.6921 14.8874 11.0641 15.1339 10.3672C15.3118 9.86507 15.4215 9.34659 15.4542 8.8125C15.4795 8.40086 15.4685 7.98554 15.4073 7.56934C15.3008 6.84598 15.0681 6.16287 14.7052 5.52539C14.3966 4.98301 14.0122 4.50225 13.5538 4.08398L13.3536 3.9082L13.0929 3.70312C12.4747 3.2417 11.7863 2.9117 11.0294 2.71875C10.5259 2.5906 10.0146 2.53258 9.49719 2.53809H9.49622Z" fill="#49C858" stroke="white" stroke-width="0.692208"/>
<path d="M11.3061 11.6023C11.0676 11.6132 10.8369 11.5719 10.6107 11.4988C10.3337 11.4087 10.0598 11.3116 9.79073 11.2002C9.40938 11.0427 9.05511 10.8391 8.72093 10.5988C8.48461 10.4287 8.26226 10.2424 8.04909 10.044C7.61794 9.64234 7.23746 9.19716 6.89892 8.7163C6.81373 8.59532 6.72724 8.47478 6.64774 8.34989C6.51538 8.141 6.40573 7.91994 6.32012 7.68799C6.2262 7.43255 6.16766 7.17014 6.17378 6.89729C6.18426 6.41773 6.34196 5.99475 6.67526 5.6427C6.7054 5.61093 6.73336 5.57742 6.7635 5.54653C6.89105 5.41467 7.04656 5.34417 7.23091 5.34548C7.35584 5.34635 7.48077 5.35331 7.60614 5.3581C7.68477 5.36071 7.74724 5.39683 7.79092 5.45862C7.82762 5.51041 7.85994 5.56654 7.88571 5.62442C7.94119 5.74888 7.99143 5.87595 8.04385 6.00171C8.16791 6.29893 8.29109 6.59615 8.4169 6.89294C8.45796 6.98998 8.45971 7.0818 8.41166 7.17754C8.35793 7.28459 8.30027 7.38729 8.21989 7.47694C8.13471 7.57224 8.05171 7.66928 7.96784 7.76545C7.95473 7.78068 7.94119 7.79635 7.9294 7.81289C7.88615 7.87425 7.8761 7.94083 7.9045 8.01089C7.9176 8.04309 7.93333 8.07442 7.95124 8.10401C8.18625 8.49393 8.46146 8.85251 8.7952 9.16322C9.14903 9.49264 9.54611 9.75809 9.98949 9.95348C10.0668 9.98743 10.1433 10.0227 10.221 10.0557C10.2555 10.0705 10.2913 10.0832 10.328 10.0927C10.404 10.1119 10.4726 10.094 10.5303 10.041C10.5539 10.0196 10.5762 9.99657 10.5971 9.9722C10.7662 9.77681 10.9348 9.58098 11.0859 9.37079C11.106 9.34251 11.1287 9.31553 11.1532 9.29116C11.2039 9.23981 11.2663 9.21892 11.3367 9.23589C11.3956 9.25025 11.4551 9.26679 11.511 9.29072C11.6289 9.34077 11.7451 9.39386 11.8604 9.44912C12.154 9.59055 12.4467 9.73372 12.7393 9.87646C12.7734 9.893 12.8062 9.91171 12.8394 9.92955C12.9097 9.96741 12.9451 10.0257 12.946 10.1058C12.9473 10.1959 12.9473 10.2855 12.9333 10.3747C12.9128 10.507 12.8822 10.6367 12.8385 10.7629C12.804 10.863 12.7503 10.9518 12.6777 11.0292C12.6061 11.1058 12.5297 11.1767 12.4445 11.2381C12.3073 11.3373 12.1601 11.4191 12.005 11.487C11.843 11.558 11.673 11.5936 11.497 11.6023C11.4341 11.605 11.3699 11.6023 11.3061 11.6023Z" fill="white"/>
</svg>
