<svg width="100%" viewBox="0 0 680 680" role="img" xmlns="http://www.w3.org/2000/svg">

  <!-- фон -->
  <circle cx="340" cy="340" r="238" fill="#beaf99"></circle>
  <circle cx="340" cy="340" r="238" fill="none" stroke="rgba(255,255,255,0.18)" stroke-width="3"></circle>

  <!-- 9-конечная звезда -->
  <path d="
      M 305.80,246.03
      L 328.03,177.11 Q 340,140 351.97,177.11
      L 374.20,246.03
      L 435.53,207.52 Q 468.56,186.79 453.88,222.91
      L 426.60,290
      L 498.33,299.93 Q 536.96,305.27 502.49,323.50
      L 438.48,357.36
      L 487.06,411.08 Q 513.21,440 475.09,431.81
      L 404.28,416.60
      L 406.96,488.97 Q 408.40,527.94 384.46,497.16
      L 340,440
      L 295.54,497.16 Q 271.60,527.94 273.04,488.97
      L 275.72,416.60
      L 204.91,431.81 Q 166.79,440 192.94,411.08
      L 241.52,357.36
      L 177.51,323.50 Q 143.04,305.27 181.67,299.93
      L 253.40,290
      L 226.12,222.91 Q 211.44,186.79 244.47,207.52
      L 305.80,246.03 Z
    " fill="rgba(255,255,255,0.13)" stroke="white" stroke-width="15" stroke-linejoin="round"></path>

  <polyline points="302,342 327,370 385,308" fill="none" stroke="white" stroke-width="30" stroke-linecap="round"
    stroke-linejoin="round"></polyline>
</svg>