<svg width="24" height="24" viewBox="0 0 24 24" fill="none" xmlns="http://www.w3.org/2000/svg">
  <path
    d="M14 5.81238V9.21497C14 9.3587 14 9.43057 14.0384 9.49033C14.1962 9.73574 14.8165 9.92758 15.6099 9.97639C15.8031 9.98828 16.0354 9.98828 16.5 9.98828C16.9647 9.98828 17.197 9.98828 17.3902 9.97639C18.1836 9.92758 18.8036 9.73574 18.9614 9.49033C18.9999 9.43057 19 9.3587 19 9.21497V5.81238C19 5.66865 18.9999 5.5968 18.9614 5.53704C18.8036 5.29162 18.1836 5.09977 17.3902 5.05095C17.197 5.03906 16.9647 5.03906 16.5 5.03906C16.0353 5.03906 15.8031 5.03906 15.6099 5.05095C14.8165 5.09977 14.1962 5.29162 14.0384 5.53704C14 5.5968 14 5.66865 14 5.81238Z"
    stroke="currentColor" stroke-width="2" stroke-linecap="round" stroke-linejoin="round" />
  <path
    d="M5 5.81238V9.21497C5 9.3587 5 9.43057 5.03843 9.49033C5.19624 9.73574 5.81648 9.92758 6.60986 9.97639C6.80306 9.98828 7.03539 9.98828 7.50004 9.98828C7.96469 9.98828 8.19698 9.98828 8.39018 9.97639C9.18356 9.92758 9.80361 9.73574 9.96143 9.49033C9.99986 9.43057 10 9.3587 10 9.21497V5.81238C10 5.66865 9.99986 5.5968 9.96143 5.53704C9.80361 5.29162 9.18356 5.09977 8.39018 5.05095C8.19698 5.03906 7.96466 5.03906 7.5 5.03906C7.03534 5.03906 6.80306 5.03906 6.60986 5.05095C5.81648 5.09977 5.19624 5.29162 5.03843 5.53704C5 5.5968 5 5.66865 5 5.81238Z"
    stroke="currentColor" stroke-width="2" stroke-linecap="round" stroke-linejoin="round" />
  <path
    d="M14 14.8062V18.2329C14 18.3777 14 18.45 14.0384 18.5102C14.1962 18.7574 14.8165 18.9506 15.6099 18.9997C15.8031 19.0117 16.0354 19.0117 16.5 19.0117C16.9647 19.0117 17.197 19.0117 17.3902 18.9997C18.1836 18.9506 18.8036 18.7574 18.9614 18.5102C18.9999 18.45 19 18.3777 19 18.2329V14.8062C19 14.6614 18.9999 14.589 18.9614 14.5289C18.8036 14.2817 18.1836 14.0885 17.3902 14.0393C17.197 14.0273 16.9647 14.0273 16.5 14.0273C16.0353 14.0273 15.8031 14.0273 15.6099 14.0393C14.8165 14.0885 14.1962 14.2817 14.0384 14.5289C14 14.589 14 14.6614 14 14.8062Z"
    stroke="currentColor" stroke-width="2" stroke-linecap="round" stroke-linejoin="round" />
  <path
    d="M5 14.8062V18.2329C5 18.3777 5 18.45 5.03843 18.5102C5.19624 18.7574 5.81648 18.9506 6.60986 18.9997C6.80306 19.0117 7.03539 19.0117 7.50004 19.0117C7.96469 19.0117 8.19698 19.0117 8.39018 18.9997C9.18356 18.9506 9.80361 18.7574 9.96143 18.5102C9.99986 18.45 10 18.3777 10 18.2329V14.8062C10 14.6614 9.99986 14.589 9.96143 14.5289C9.80361 14.2817 9.18356 14.0885 8.39018 14.0393C8.19698 14.0273 7.96466 14.0273 7.5 14.0273C7.03534 14.0273 6.80306 14.0273 6.60986 14.0393C5.81648 14.0885 5.19624 14.2817 5.03843 14.5289C5 14.589 5 14.6614 5 14.8062Z"
    stroke="currentColor" stroke-width="2" stroke-linecap="round" stroke-linejoin="round" />
</svg>